<svg xmlns="http://www.w3.org/2000/svg" viewBox="0 0 21.309 17.435">
  <defs>
    <style>
      .cls-1 {
        fill: #2b2b2b;
      }
    </style>
  </defs>
  <path id="mail" class="cls-1" d="M21.309,40.5a.833.833,0,0,0-.83-.83H.83A.833.833,0,0,0,0,40.5V56.272a.833.833,0,0,0,.83.83H20.479a.833.833,0,0,0,.83-.83ZM1.66,55.442V45.6L10,52.785a.753.753,0,0,0,.526.194.968.968,0,0,0,.567-.194l8.551-7.154v9.811ZM19.649,41.327v2.145c-.138.014-.069.028-.083.028l-9.022,7.569L1.688,43.458c-.014-.014-.028-.028-.028-.042V41.327Z" transform="translate(0 -39.667)"/>
</svg>
