<svg xmlns="http://www.w3.org/2000/svg" viewBox="0 0 15.98 17.437">
  <defs>
    <style>
      .cls-1 {
        fill: #2b2b2b;
      }
    </style>
  </defs>
  <path id="plus" class="cls-1" d="M-22462.986-620.09c-.09-.023-.191-.011-.281-.034-.227-.039-.469-.09-.723-.147a4.216,4.216,0,0,1-3.1-2.413,4.186,4.186,0,0,1-.057-3.3,4.19,4.19,0,0,1,2.463-2.267c.182-.073.361-.13.564-.192a4.033,4.033,0,0,1-1.264-.8,4.063,4.063,0,0,1-1.172-2.34,4.749,4.749,0,0,1,1.521-4.607,5.457,5.457,0,0,1,2.973-1.252,14.7,14.7,0,0,1,1.775-.073h.463c.27-.011.559-.011.914-.011h1.381a1.215,1.215,0,0,1,1.207,1.128,1.629,1.629,0,0,1-1.033,1.652,3.121,3.121,0,0,1,.107.462,7.059,7.059,0,0,1,.113,1.776,1.8,1.8,0,0,1,1.521-.84,1.814,1.814,0,0,1,1.811,1.816v.389h.5a1.819,1.819,0,0,1,1.822,1.81,1.813,1.813,0,0,1-1.816,1.8h-.5v.44a1.812,1.812,0,0,1-1.8,1.816,1.78,1.78,0,0,1-.7-.141,4.866,4.866,0,0,1-.135,1.63,4.647,4.647,0,0,1-3.152,3.3,8.7,8.7,0,0,1-1.172.293c-.158.039-.311.062-.463.09a1.439,1.439,0,0,1-.271.011h-1.262l-.154,0C-22462.934-620.088-22462.959-620.088-22462.986-620.09Zm1.066-16.166a4.216,4.216,0,0,0-2.318.97,3.574,3.574,0,0,0-1.115,3.513,2.737,2.737,0,0,0,2.486,2.408c.275.034.553.051.732.073.182.592.344,1.133.5,1.652-.4.039-.852.062-1.291.141a8.165,8.165,0,0,0-1.324.355,2.86,2.86,0,0,0-1.738,3.981,3.047,3.047,0,0,0,2.289,1.7,3.761,3.761,0,0,0,.932.158h1.268a14.632,14.632,0,0,0,1.535-.338,3.532,3.532,0,0,0,1.611-5.684c-.377-.4-.789-.761-1.189-1.133-.756-.7-.756-.97-.012-1.675a3.68,3.68,0,0,0,.953-1.252,4.931,4.931,0,0,0,.182-2.723,1.885,1.885,0,0,0-.9-1.319c-.029-.023-.057-.062-.119-.113.152-.028.26-.051.383-.073.373-.068.744-.118,1.111-.209.242-.051.451-.169.434-.5h-2.289A20.473,20.473,0,0,0-22461.92-636.256Zm3.559,6.924a.6.6,0,0,0,.613.6h1.539v1.635a.606.606,0,0,0,.6.615.6.6,0,0,0,.6-.615v-1.635h1.709a.6.6,0,0,0,.609-.6.6.6,0,0,0-.609-.6h-1.709v-1.6a.605.605,0,0,0-.6-.615.6.6,0,0,0-.6.615v1.6h-1.539A.606.606,0,0,0-22458.361-629.332Zm-5.285,5.847a1.389,1.389,0,0,1-.033-1.827,2.654,2.654,0,0,1,2.059-.925,2.373,2.373,0,0,1,1.3.367,1.544,1.544,0,0,1-.164,2.729,3.245,3.245,0,0,1-1.455.31A2.251,2.251,0,0,1-22463.646-623.485Zm.926-1.105c-.033.039-.135.18-.045.282.123.13.293.242.834.271a1.857,1.857,0,0,0,.9-.18.358.358,0,0,0,.242-.333.37.37,0,0,0-.2-.338,1.174,1.174,0,0,0-.631-.164A1.439,1.439,0,0,0-22462.721-624.59Zm1.111-5.988a1.283,1.283,0,0,1-.824-.321,2.88,2.88,0,0,1-.924-2.188,1.856,1.856,0,0,1,.422-1.2,1.191,1.191,0,0,1,.926-.389,1.456,1.456,0,0,1,.992.378,2.751,2.751,0,0,1,.4,3.1,1.146,1.146,0,0,1-.965.621Zm-.018-1.235a1.592,1.592,0,0,0-.215-1.584.212.212,0,0,0-.162-.051h-.035a.677.677,0,0,0-.111.372,1.659,1.659,0,0,0,.479,1.252c.012,0,.012.011.021.011s.01-.008.012-.008S-22461.633-631.819-22461.627-631.813Z" transform="translate(22467.457 637.525)"/>
</svg>
