<svg xmlns="http://www.w3.org/2000/svg" viewBox="0 0 20.508 17.435">
  <defs>
    <style>
      .cls-1 {
        fill: #2b2b2b;
      }
    </style>
  </defs>
  <path id="twitter" class="cls-1" d="M20.034,39.837A1.393,1.393,0,0,0,18.75,38.01h-.116a1.392,1.392,0,0,0-.578.162c-.058.023-.1.058-.15.081l-.069.035q-.538.208-1.11.416A6.029,6.029,0,0,0,14.449,37.7a1.481,1.481,0,0,0-.312-.058h-.983a1.959,1.959,0,0,0-.358.069,5.878,5.878,0,0,0-2.324,1.11,5.091,5.091,0,0,0-1.815,3.156,8.725,8.725,0,0,1-5.076-3.064,1.36,1.36,0,0,0-1.064-.462h0a1.387,1.387,0,0,0-1.064.474,4.052,4.052,0,0,0-.809,3.422,6.284,6.284,0,0,0,.312,1.075,1.36,1.36,0,0,0-.335.74,4.262,4.262,0,0,0,1.33,3.584,1.271,1.271,0,0,0-.012.59,3.927,3.927,0,0,0,1.341,2.278,6.514,6.514,0,0,1-1.376.15c-.139,0-.277,0-.416-.012h-.1A1.387,1.387,0,0,0,.68,53.329c.046.023.093.058.139.081.116.069.254.15.393.231A11.872,11.872,0,0,0,6.83,55.075,12.661,12.661,0,0,0,9,54.878a11.571,11.571,0,0,0,6.128-3.11,12.029,12.029,0,0,0,3.3-6.128,11.647,11.647,0,0,0,.2-1.619c.012-.2.023-.382.046-.567a9.769,9.769,0,0,0,1.572-1.746,1.4,1.4,0,0,0-.208-1.873Zm-2.486,2.752a.841.841,0,0,0-.231.462c-.093.763-.093,1.549-.254,2.289A10.2,10.2,0,0,1,8.75,53.514a11,11,0,0,1-1.931.173,10.416,10.416,0,0,1-4.96-1.272c-.162-.081-.312-.185-.474-.277.173.012.347.023.52.023a7.251,7.251,0,0,0,4.659-1.6c-1.815-.277-3.018-1.214-3.26-2.474.474-.023.948-.058,1.434-.081-1.931-.925-2.9-2.22-2.729-3.677l1.4.347c-1.526-1.63-1.919-3.665-.89-4.879a10.335,10.335,0,0,0,7.527,3.769,1.882,1.882,0,0,1-.023-.208,3.75,3.75,0,0,1,1.353-3.492,5.438,5.438,0,0,1,1.792-.844h.983a5.165,5.165,0,0,1,2.22,1.145.294.294,0,0,0,.15.058.287.287,0,0,0,.1-.012c.578-.208,1.156-.416,1.734-.636.1-.046.208-.1.37-.185A3.994,3.994,0,0,1,17.2,41.328a.289.289,0,0,0,.046.081c.613-.173,1.237-.347,1.885-.532A8.6,8.6,0,0,1,17.548,42.588Z" transform="translate(-0.001 -37.64)"/>
</svg>
